<svg id="Layer_1" data-name="Layer 1" xmlns="http://www.w3.org/2000/svg" viewBox="0 0 1191.92 685.25"><defs><style>.cls-1{fill:#e5e3e7;}</style></defs><title>form-bot</title><path class="cls-1" d="M2001,1988V1546a12.06,12.06,0,1,0-5.73-23.12L1903.51,1349a12.07,12.07,0,1,0-17.48-5.19l-254,141.43a12.06,12.06,0,0,0-20.11,13.33L1450.2,1624.88a12.05,12.05,0,0,0-20.61,5.5L1250.34,1605c0-.23,0-.46,0-.7a12.07,12.07,0,1,0-21.22,7.85l-111,112.39a12.06,12.06,0,0,0-18.78,14.12L935,1827.89a12.06,12.06,0,1,0-16.83,16.61l-81,144.53a12.07,12.07,0,1,0,7,12h404.45a12.06,12.06,0,0,0,24,0H1610a12.06,12.06,0,0,0,24,0h354a12.07,12.07,0,1,0,13-13Zm-2-439.72V1988c-.34,0-.68.08-1,.13l-36.27-141.72a12.05,12.05,0,0,0-1.29-23.15l10.32-73.57Zm-9,445-276.49-153.81a11.86,11.86,0,0,0,1-4l78.9.16,152.35.3a12,12,0,0,0,14,10.91l36.27,141.72A12.11,12.11,0,0,0,1990,1993.28Zm-547.8-159.78a12.06,12.06,0,0,0-10.35-10.94l9.85-177.45a12,12,0,0,0,8.56-3.92l242,186.69a11.91,11.91,0,0,0-2.24,5.62Zm-181.49,154.43a12,12,0,0,0-5,1.12l-138.47-245.29a12.19,12.19,0,0,0,4.39-5.41l296.83,93.49a12.32,12.32,0,0,0-.3,2.66,12.07,12.07,0,0,0,2.76,7.69L1313.64,1946.9l-45.05,44A12,12,0,0,0,1260.69,1987.93Zm453.83-154.41a12.07,12.07,0,0,0-5.83-9.37l116.42-237.42a11.93,11.93,0,0,0,8.82,0l117.62,238a12.05,12.05,0,0,0-5.79,9.31l-122.82-.24Zm282.82-287.82L1958.45,1823c-.23,0-.45,0-.68,0a12.12,12.12,0,0,0-4.43.85l-9.27-18.76-108.35-219.19a12.06,12.06,0,0,0,5.85-10.33,12.75,12.75,0,0,0-.16-1.87l147.15-35.88A12.07,12.07,0,0,0,1997.34,1545.7Zm-174,40.14L1706.69,1823.2a11.94,11.94,0,0,0-4.19-.77,11.53,11.53,0,0,0-1.77.15l-75-319.11a12.05,12.05,0,0,0,7-6.06l185.2,74.53a12,12,0,0,0,5.34,13.9Zm-585,30.51a12,12,0,0,0,6.92-2.2l176.47,211.76a12,12,0,0,0-2.7,4l-296.84-93.49a11.73,11.73,0,0,0,.31-2.66,12,12,0,0,0-2.91-7.85l111-112.39A12,12,0,0,0,1238.31,1616.35ZM1622,1987.93a12.06,12.06,0,0,0-8.45,3.46l-173.64-149.8a12,12,0,0,0,2.27-6.09H1690a12.09,12.09,0,0,0,6.08,10l-69.68,143.27A12,12,0,0,0,1622,1987.93Zm-511.6-242.08a12.14,12.14,0,0,0,5-1.11l90.06,159.53,48.41,85.75a12.06,12.06,0,0,0-3.55,3.77l-314.2-154.87a12.07,12.07,0,0,0-.18-9.28l72.9-39.59,91.44-49.65A12,12,0,0,0,1110.4,1745.85ZM1270,1992.31l152.28-148.7a12,12,0,0,0,16.34-.5l46.26,39.9,127.38,109.9A12.08,12.08,0,0,0,1610,1999H1272.7A12,12,0,0,0,1270,1992.31Zm358.16-2.67,69.71-143.32a12,12,0,0,0,12.91-3,12.24,12.24,0,0,0,1.75-2L1989,1995a12.24,12.24,0,0,0-1,4H1634A12,12,0,0,0,1628.15,1989.64Zm365.36-465.86a12,12,0,0,0-5.58,10.15,12.88,12.88,0,0,0,.16,1.88l-52.48,12.79-94.67,23.08a12.09,12.09,0,0,0-7.18-7.46l60.92-213.51a11.85,11.85,0,0,0,7.07-.73ZM1887,1345.6a12.07,12.07,0,0,0,5.76,4.56l-36.38,127.48-24.54,86a12.89,12.89,0,0,0-2.34-.23,12,12,0,0,0-10.77,6.66L1679,1513.84l-45.42-18.28a11.94,11.94,0,0,0,.54-3.56,12.15,12.15,0,0,0-1.08-5Zm-273.85,154.58a12,12,0,0,0,8.85,3.89,11.17,11.17,0,0,0,1.75-.15l74.48,319.31a11.91,11.91,0,0,0-4.5,3l-.14.13-242.12-186.75a12,12,0,0,0,0-13.16Zm-183.84,132.19c0,.23,0,.46,0,.69a12.06,12.06,0,0,0,10.4,11.94l-9.85,177.45a12,12,0,0,0-6.59,2.18l-176.47-211.75a12.07,12.07,0,0,0,3.29-5.92Zm-509.37,213.1a11.92,11.92,0,0,0,5,1.1,12.06,12.06,0,0,0,10.33-5.86l314.2,154.87a12.2,12.2,0,0,0-.8,3.42H844.22a12.06,12.06,0,0,0-5.26-9Z" transform="translate(-820.14 -1326.81)"/></svg>