<svg id="Layer_1" data-name="Layer 1" xmlns="http://www.w3.org/2000/svg" viewBox="0 0 856.34 857.79"><defs><style>.cls-1{fill:#eeeff5;}</style></defs><title>form-top</title><path class="cls-1" d="M832.21,108.52a12,12,0,0,0-10.38,5.93L594,4.33A12,12,0,0,0,594.86,0a12.07,12.07,0,0,0-12.07-12.07A12.07,12.07,0,0,0,570.78-1H275a12.07,12.07,0,0,0-12-11.07A12.07,12.07,0,0,0,251-1H12A12.07,12.07,0,0,0,0-12.07,12.08,12.08,0,0,0-12.07,0,12.07,12.07,0,0,0-1,12v157.3a12.07,12.07,0,0,0-11.07,12A12.07,12.07,0,0,0-1,193.35V479.49a12.07,12.07,0,0,0-11.07,12A12.07,12.07,0,0,0-1,503.52V821.64a12.07,12.07,0,0,0-11.07,12A12.07,12.07,0,0,0,0,845.72a12.07,12.07,0,0,0,12.07-12.07,12,12,0,0,0-.91-4.57L252.78,705.71a12.06,12.06,0,1,0,16.81-16.47l129.33-241a12.07,12.07,0,0,0,16.3-14.74l256-105.92A12.06,12.06,0,1,0,689.9,313L825.82,130.81a12.06,12.06,0,1,0,6.39-22.29ZM821,116.25a12.4,12.4,0,0,0-.79,3.87L546.44,132.45,489.23,135a12,12,0,0,0-3.83-7.35L576.24,10.12a11.93,11.93,0,0,0,6.55,2,12.05,12.05,0,0,0,10.38-5.94ZM12,1H251a12,12,0,0,0,1.56,5L9.33,173.69A12,12,0,0,0,1,169.32V12A12.08,12.08,0,0,0,12,1ZM10.46,175.34,253.7,7.65a12,12,0,0,0,4.81,3.53l-88.8,286.29a11.8,11.8,0,0,0-2.61-.29,12,12,0,0,0-8.93,4l-148-113.3a12,12,0,0,0,1.92-6.51A12,12,0,0,0,10.46,175.34Zm455.82-33.8-289.16,161a12.1,12.1,0,0,0-5.5-4.46l45.81-147.68,43-138.6a12.42,12.42,0,0,0,2.61.29,12,12,0,0,0,9.59-4.77L466.6,131a12,12,0,0,0-1.4,5.62A12.15,12.15,0,0,0,466.28,141.54ZM178.09,304.27,464.46,144.85l2.79-1.56a12.12,12.12,0,0,0,6.19,4.72L405.61,425.24a13,13,0,0,0-1.89-.16,12,12,0,0,0-10.09,5.47L178.15,314.08a12,12,0,0,0,1-4.84A12.15,12.15,0,0,0,178.09,304.27ZM574.66,8.89,483.83,126.45a12,12,0,0,0-16.15,2.82L273.7,5.62A11.84,11.84,0,0,0,275,1H570.78A12,12,0,0,0,574.66,8.89ZM8.93,189.43l148,113.3a12,12,0,0,0,1.3,14.69L19,469.32,7.38,482A12,12,0,0,0,1,479.49V193.35A12,12,0,0,0,8.93,189.43Zm1.12,308.75a12,12,0,0,0,2-6.67,12,12,0,0,0-3.22-8.18L159.72,318.77a11.73,11.73,0,0,0,9.28,2.37l90.19,366.78a12.15,12.15,0,0,0-5,3.2l-135-106.68Zm.19,329.12A12,12,0,0,0,1,821.64V503.52a12,12,0,0,0,7.8-3.78l53.55,42.31L253,692.68a12,12,0,0,0-1.11,11.25Zm257.59-139a11.83,11.83,0,0,0-6.7-.84l-1-4.14L170.94,320.67a12.11,12.11,0,0,0,6.26-4.83L276,369.24l116.68,63.07a12.06,12.06,0,0,0,4.49,14.95ZM414.45,431.63a12.09,12.09,0,0,0-6.9-5.92l67.84-277.24a11.63,11.63,0,0,0,1.88.17,12.06,12.06,0,0,0,8.23-3.26l101.17,91.68,85.68,77.65a12,12,0,0,0-2.5,7.32,12.11,12.11,0,0,0,.58,3.68ZM688.3,311.81a12,12,0,0,0-14.61,1.42L580.5,228.77,486.84,143.9a12,12,0,0,0,2.47-6.87l105.1-4.74,225.84-10.17a12.06,12.06,0,0,0,4,7.49Z" transform="translate(12.07 12.07)"/></svg>